<?xml version="1.0" encoding="utf-8"?>
<!-- Generator: Adobe Illustrator 15.0.0, SVG Export Plug-In . SVG Version: 6.00 Build 0)  -->
<!DOCTYPE svg PUBLIC "-//W3C//DTD SVG 1.1//EN" "http://www.w3.org/Graphics/SVG/1.1/DTD/svg11.dtd">
<svg version="1.1" id="Layer_1" xmlns="http://www.w3.org/2000/svg" xmlns:xlink="http://www.w3.org/1999/xlink" x="0px" y="0px"
	 width="800px" height="600px" viewBox="0 0 800 600" enable-background="new 0 0 800 600" xml:space="preserve">
<rect id="id300" fill="#FFFFFF" width="40" height="40"/>
<rect id="id299" x="40" fill="#FFFFFF" width="40" height="40"/>
<rect id="id298" x="80" fill="#FFFFFF" width="40" height="40"/>
<rect id="id297" x="120" fill="#FFFFFF" width="40" height="40"/>
<rect id="id296" x="160" fill="#FFFFFF" width="40" height="40"/>
<rect id="id295" x="200" fill="#FFFFFF" width="40" height="40"/>
<rect id="id294" x="240" fill="#FFFFFF" width="40" height="40"/>
<rect id="id293" x="280" fill="#FFFFFF" width="40" height="40"/>
<rect id="id292" x="319" fill="#FFFFFF" width="40" height="40"/>
<rect id="id291" x="359" fill="#FFFFFF" width="40" height="40"/>
<rect id="id290" x="399" fill="#FFFFFF" width="40" height="40"/>
<rect id="id289" x="439" fill="#FFFFFF" width="40" height="40"/>
<rect id="id288" x="479" fill="#FFFFFF" width="40" height="40"/>
<rect id="id287" x="519" fill="#FFFFFF" width="40" height="40"/>
<rect id="id286" x="559" fill="#FFFFFF" width="40" height="40"/>
<rect id="id285" x="599" fill="#FFFFFF" width="40" height="40"/>
<rect id="id284" x="639" fill="#FFFFFF" width="40" height="40"/>
<rect id="id283" x="679" fill="#FFFFFF" width="40" height="40"/>
<rect id="id282" x="719" fill="#FFFFFF" width="40" height="40"/>
<rect id="id281" x="759" fill="#FFFFFF" width="40" height="40"/>
<rect id="id280" y="40" fill="#FFFFFF" width="40" height="40"/>
<rect id="id279" x="40" y="40" fill="#FFFFFF" width="40" height="40"/>
<rect id="id278" x="80" y="40" fill="#FFFFFF" width="40" height="40"/>
<rect id="id277" x="120" y="40" fill="#FFFFFF" width="40" height="40"/>
<rect id="id276" x="160" y="40" fill="#FFFFFF" width="40" height="40"/>
<rect id="id275" x="200" y="40" fill="#FFFFFF" width="40" height="40"/>
<rect id="id274" x="240" y="40" fill="#FFFFFF" width="40" height="40"/>
<rect id="id273" x="280" y="40" fill="#FFFFFF" width="40" height="40"/>
<rect id="id272" x="319" y="40" fill="#FFFFFF" width="40" height="40"/>
<rect id="id271" x="359" y="40" fill="#FFFFFF" width="40" height="40"/>
<rect id="id270" x="399" y="40" fill="#FFFFFF" width="40" height="40"/>
<rect id="id269" x="439" y="40" fill="#FFFFFF" width="40" height="40"/>
<rect id="id268" x="479" y="40" fill="#FFFFFF" width="40" height="40"/>
<rect id="id267" x="519" y="40" fill="#FFFFFF" width="40" height="40"/>
<rect id="id266" x="559" y="40" fill="#FFFFFF" width="40" height="40"/>
<rect id="id265" x="599" y="40" fill="#FFFFFF" width="40" height="40"/>
<rect id="id264" x="639" y="40" fill="#FFFFFF" width="40" height="40"/>
<rect id="id263" x="679" y="40" fill="#FFFFFF" width="40" height="40"/>
<rect id="id262" x="719" y="40" fill="#FFFFFF" width="40" height="40"/>
<rect id="id261" x="759" y="40" fill="#FFFFFF" width="40" height="40"/>
<rect id="id260" y="80" fill="#FFFFFF" width="40" height="40"/>
<rect id="id259" x="40" y="80" fill="#FFFFFF" width="40" height="40"/>
<rect id="id258" x="80" y="80" fill="#FFFFFF" width="40" height="40"/>
<rect id="id257" x="120" y="80" fill="#FFFFFF" width="40" height="40"/>
<rect id="id256" x="160" y="80" fill="#FFFFFF" width="40" height="40"/>
<rect id="id255" x="200" y="80" fill="#FFFFFF" width="40" height="40"/>
<rect id="id254" x="240" y="80" fill="#FFFFFF" width="40" height="40"/>
<rect id="id253" x="280" y="80" fill="#FFFFFF" width="40" height="40"/>
<rect id="id252" x="319" y="80" fill="#FFFFFF" width="40" height="40"/>
<rect id="id251" x="359" y="80" fill="#FFFFFF" width="40" height="40"/>
<rect id="id250" x="399" y="80" fill="#FFFFFF" width="40" height="40"/>
<rect id="id249" x="439" y="80" fill="#FFFFFF" width="40" height="40"/>
<rect id="id248" x="479" y="80" fill="#FFFFFF" width="40" height="40"/>
<rect id="id247" x="519" y="80" fill="#FFFFFF" width="40" height="40"/>
<rect id="id246" x="559" y="80" fill="#FFFFFF" width="40" height="40"/>
<rect id="id245" x="599" y="80" fill="#FFFFFF" width="40" height="40"/>
<rect id="id244" x="639" y="80" fill="#FFFFFF" width="40" height="40"/>
<rect id="id243" x="679" y="80" fill="#FFFFFF" width="40" height="40"/>
<rect id="id242" x="719" y="80" fill="#FFFFFF" width="40" height="40"/>
<rect id="id241" x="759" y="80" fill="#FFFFFF" width="40" height="40"/>
<rect id="id240" y="120" fill="#FFFFFF" width="40" height="40"/>
<rect id="id239" x="40" y="120" fill="#FFFFFF" width="40" height="40"/>
<rect id="id238" x="80" y="120" fill="#FFFFFF" width="40" height="40"/>
<rect id="id237" x="120" y="120" fill="#FFFFFF" width="40" height="40"/>
<rect id="id236" x="160" y="120" fill="#FFFFFF" width="40" height="40"/>
<rect id="id235" x="200" y="120" fill="#FFFFFF" width="40" height="40"/>
<rect id="id234" x="240" y="120" fill="#FFFFFF" width="40" height="40"/>
<rect id="id233" x="280" y="120" fill="#FFFFFF" width="40" height="40"/>
<rect id="id232" x="319" y="120" fill="#FFFFFF" width="40" height="40"/>
<rect id="id231" x="359" y="120" fill="#FFFFFF" width="40" height="40"/>
<rect id="id230" x="399" y="120" fill="#FFFFFF" width="40" height="40"/>
<rect id="id229" x="439" y="120" fill="#FFFFFF" width="40" height="40"/>
<rect id="id228" x="479" y="120" fill="#FFFFFF" width="40" height="40"/>
<rect id="id227" x="519" y="120" fill="#FFFFFF" width="40" height="40"/>
<rect id="id226" x="559" y="120" fill="#FFFFFF" width="40" height="40"/>
<rect id="id225" x="599" y="120" fill="#FFFFFF" width="40" height="40"/>
<rect id="id224" x="639" y="120" fill="#FFFFFF" width="40" height="40"/>
<rect id="id223" x="679" y="120" fill="#FFFFFF" width="40" height="40"/>
<rect id="id222" x="719" y="120" fill="#FFFFFF" width="40" height="40"/>
<rect id="id221" x="759" y="120" fill="#FFFFFF" width="40" height="40"/>
<rect id="id220" y="160" fill="#FFFFFF" width="40" height="40"/>
<rect id="id219" x="40" y="160" fill="#FFFFFF" width="40" height="40"/>
<rect id="id218" x="80" y="160" fill="#FFFFFF" width="40" height="40"/>
<rect id="id217" x="120" y="160" fill="#FFFFFF" width="40" height="40"/>
<rect id="id216" x="160" y="160" fill="#FFFFFF" width="40" height="40"/>
<rect id="id215" x="200" y="160" fill="#FFFFFF" width="40" height="40"/>
<rect id="id214" x="240" y="160" fill="#FFFFFF" width="40" height="40"/>
<rect id="id213" x="280" y="160" fill="#FFFFFF" width="40" height="40"/>
<rect id="id212" x="319" y="160" fill="#FFFFFF" width="40" height="40"/>
<rect id="id211" x="359" y="160" fill="#FFFFFF" width="40" height="40"/>
<rect id="id210" x="399" y="160" fill="#FFFFFF" width="40" height="40"/>
<rect id="id209" x="439" y="160" fill="#FFFFFF" width="40" height="40"/>
<rect id="id208" x="479" y="160" fill="#FFFFFF" width="40" height="40"/>
<rect id="id207" x="519" y="160" fill="#FFFFFF" width="40" height="40"/>
<rect id="id206" x="559" y="160" fill="#FFFFFF" width="40" height="40"/>
<rect id="id205" x="599" y="160" fill="#FFFFFF" width="40" height="40"/>
<rect id="id204" x="639" y="160" fill="#FFFFFF" width="40" height="40"/>
<rect id="id203" x="679" y="160" fill="#FFFFFF" width="40" height="40"/>
<rect id="id202" x="719" y="160" fill="#FFFFFF" width="40" height="40"/>
<rect id="id201" x="759" y="160" fill="#FFFFFF" width="40" height="40"/>
<rect id="id200" y="200" fill="#FFFFFF" width="40" height="40"/>
<rect id="id199" x="40" y="200" fill="#FFFFFF" width="40" height="40"/>
<rect id="id198" x="80" y="200" fill="#FFFFFF" width="40" height="40"/>
<rect id="id197" x="120" y="200" fill="#FFFFFF" width="40" height="40"/>
<rect id="id196" x="160" y="200" fill="#FFFFFF" width="40" height="40"/>
<rect id="id195" x="200" y="200" fill="#FFFFFF" width="40" height="40"/>
<rect id="id194" x="240" y="200" fill="#FFFFFF" width="40" height="40"/>
<rect id="id193" x="280" y="200" fill="#FFFFFF" width="40" height="40"/>
<rect id="id192" x="319" y="200" fill="#FFFFFF" width="40" height="40"/>
<rect id="id191" x="359" y="200" fill="#FFFFFF" width="40" height="40"/>
<rect id="id190" x="399" y="200" fill="#FFFFFF" width="40" height="40"/>
<rect id="id189" x="439" y="200" fill="#FFFFFF" width="40" height="40"/>
<rect id="id188" x="479" y="200" fill="#FFFFFF" width="40" height="40"/>
<rect id="id187" x="519" y="200" fill="#FFFFFF" width="40" height="40"/>
<rect id="id186" x="559" y="200" fill="#FFFFFF" width="40" height="40"/>
<rect id="id185" x="599" y="200" fill="#FFFFFF" width="40" height="40"/>
<rect id="id184" x="639" y="200" fill="#FFFFFF" width="40" height="40"/>
<rect id="id183" x="679" y="200" fill="#FFFFFF" width="40" height="40"/>
<rect id="id182" x="719" y="200" fill="#FFFFFF" width="40" height="40"/>
<rect id="id181" x="759" y="200" fill="#FFFFFF" width="40" height="40"/>
<rect id="id180" y="240" fill="#FFFFFF" width="40" height="40"/>
<rect id="id179" x="40" y="240" fill="#FFFFFF" width="40" height="40"/>
<rect id="id178" x="80" y="240" fill="#FFFFFF" width="40" height="40"/>
<rect id="id177" x="120" y="240" fill="#FFFFFF" width="40" height="40"/>
<rect id="id176" x="160" y="240" fill="#FFFFFF" width="40" height="40"/>
<rect id="id175" x="200" y="240" fill="#FFFFFF" width="40" height="40"/>
<rect id="id174" x="240" y="240" fill="#FFFFFF" width="40" height="40"/>
<rect id="id173" x="280" y="240" fill="#FFFFFF" width="40" height="40"/>
<rect id="id172" x="319" y="240" fill="#FFFFFF" width="40" height="40"/>
<rect id="id171" x="359" y="240" fill="#FFFFFF" width="40" height="40"/>
<rect id="id170" x="399" y="240" fill="#FFFFFF" width="40" height="40"/>
<rect id="id169" x="439" y="240" fill="#FFFFFF" width="40" height="40"/>
<rect id="id168" x="479" y="240" fill="#FFFFFF" width="40" height="40"/>
<rect id="id167" x="519" y="240" fill="#FFFFFF" width="40" height="40"/>
<rect id="id166" x="559" y="240" fill="#FFFFFF" width="40" height="40"/>
<rect id="id165" x="599" y="240" fill="#FFFFFF" width="40" height="40"/>
<rect id="id164" x="639" y="240" fill="#FFFFFF" width="40" height="40"/>
<rect id="id163" x="679" y="240" fill="#FFFFFF" width="40" height="40"/>
<rect id="id162" x="719" y="240" fill="#FFFFFF" width="40" height="40"/>
<rect id="id161" x="759" y="240" fill="#FFFFFF" width="40" height="40"/>
<rect id="id160" y="280" fill="#FFFFFF" width="40" height="40"/>
<rect id="id159" x="40" y="280" fill="#FFFFFF" width="40" height="40"/>
<rect id="id158" x="80" y="280" fill="#FFFFFF" width="40" height="40"/>
<rect id="id157" x="120" y="280" fill="#FFFFFF" width="40" height="40"/>
<rect id="id156" x="160" y="280" fill="#FFFFFF" width="40" height="40"/>
<rect id="id155" x="200" y="280" fill="#FFFFFF" width="40" height="40"/>
<rect id="id154" x="240" y="280" fill="#FFFFFF" width="40" height="40"/>
<rect id="id153" x="280" y="280" fill="#FFFFFF" width="40" height="40"/>
<rect id="id152" x="319" y="280" fill="#FFFFFF" width="40" height="40"/>
<rect id="id151" x="359" y="280" fill="#FFFFFF" width="40" height="40"/>
<rect id="id150" x="399" y="280" fill="#FFFFFF" width="40" height="40"/>
<rect id="id149" x="439" y="280" fill="#FFFFFF" width="40" height="40"/>
<rect id="id148" x="479" y="280" fill="#FFFFFF" width="40" height="40"/>
<rect id="id147" x="519" y="280" fill="#FFFFFF" width="40" height="40"/>
<rect id="id146" x="559" y="280" fill="#FFFFFF" width="40" height="40"/>
<rect id="id145" x="599" y="280" fill="#FFFFFF" width="40" height="40"/>
<rect id="id144" x="639" y="280" fill="#FFFFFF" width="40" height="40"/>
<rect id="id143" x="679" y="280" fill="#FFFFFF" width="40" height="40"/>
<rect id="id142" x="719" y="280" fill="#FFFFFF" width="40" height="40"/>
<rect id="id141" x="759" y="280" fill="#FFFFFF" width="40" height="40"/>
<rect id="id140" y="320" fill="#FFFFFF" width="40" height="40"/>
<rect id="id139" x="40" y="320" fill="#FFFFFF" width="40" height="40"/>
<rect id="id138" x="80" y="320" fill="#FFFFFF" width="40" height="40"/>
<rect id="id137" x="120" y="320" fill="#FFFFFF" width="40" height="40"/>
<rect id="id136" x="160" y="320" fill="#FFFFFF" width="40" height="40"/>
<rect id="id135" x="200" y="320" fill="#FFFFFF" width="40" height="40"/>
<rect id="id134" x="240" y="320" fill="#FFFFFF" width="40" height="40"/>
<rect id="id133" x="280" y="320" fill="#FFFFFF" width="40" height="40"/>
<rect id="id132" x="319" y="320" fill="#FFFFFF" width="40" height="40"/>
<rect id="id131" x="359" y="320" fill="#FFFFFF" width="40" height="40"/>
<rect id="id130" x="399" y="320" fill="#FFFFFF" width="40" height="40"/>
<rect id="id129" x="439" y="320" fill="#FFFFFF" width="40" height="40"/>
<rect id="id128" x="479" y="320" fill="#FFFFFF" width="40" height="40"/>
<rect id="id127" x="519" y="320" fill="#FFFFFF" width="40" height="40"/>
<rect id="id126" x="559" y="320" fill="#FFFFFF" width="40" height="40"/>
<rect id="id125" x="599" y="320" fill="#FFFFFF" width="40" height="40"/>
<rect id="id124" x="639" y="320" fill="#FFFFFF" width="40" height="40"/>
<rect id="id123" x="679" y="320" fill="#FFFFFF" width="40" height="40"/>
<rect id="id122" x="719" y="320" fill="#FFFFFF" width="40" height="40"/>
<rect id="id121" x="759" y="320" fill="#FFFFFF" width="40" height="40"/>
<rect id="id120" y="360" fill="#FFFFFF" width="40" height="40"/>
<rect id="id119" x="40" y="360" fill="#FFFFFF" width="40" height="40"/>
<rect id="id118" x="80" y="360" fill="#FFFFFF" width="40" height="40"/>
<rect id="id117" x="120" y="360" fill="#FFFFFF" width="40" height="40"/>
<rect id="id116" x="160" y="360" fill="#FFFFFF" width="40" height="40"/>
<rect id="id115" x="200" y="360" fill="#FFFFFF" width="40" height="40"/>
<rect id="id114" x="240" y="360" fill="#FFFFFF" width="40" height="40"/>
<rect id="id113" x="280" y="360" fill="#FFFFFF" width="40" height="40"/>
<rect id="id112" x="319" y="360" fill="#FFFFFF" width="40" height="40"/>
<rect id="id111" x="359" y="360" fill="#FFFFFF" width="40" height="40"/>
<rect id="id110" x="399" y="360" fill="#FFFFFF" width="40" height="40"/>
<rect id="id109" x="439" y="360" fill="#FFFFFF" width="40" height="40"/>
<rect id="id108" x="479" y="360" fill="#FFFFFF" width="40" height="40"/>
<rect id="id107" x="519" y="360" fill="#FFFFFF" width="40" height="40"/>
<rect id="id106" x="559" y="360" fill="#FFFFFF" width="40" height="40"/>
<rect id="id105" x="599" y="360" fill="#FFFFFF" width="40" height="40"/>
<rect id="id104" x="639" y="360" fill="#FFFFFF" width="40" height="40"/>
<rect id="id103" x="679" y="360" fill="#FFFFFF" width="40" height="40"/>
<rect id="id102" x="719" y="360" fill="#FFFFFF" width="40" height="40"/>
<rect id="id101" x="759" y="360" fill="#FFFFFF" width="40" height="40"/>
<rect id="id100" y="400" fill="#FFFFFF" width="40" height="40"/>
<rect id="id99" x="40" y="400" fill="#FFFFFF" width="40" height="40"/>
<rect id="id98" x="80" y="400" fill="#FFFFFF" width="40" height="40"/>
<rect id="id97" x="120" y="400" fill="#FFFFFF" width="40" height="40"/>
<rect id="id96" x="160" y="400" fill="#FFFFFF" width="40" height="40"/>
<rect id="id95" x="200" y="400" fill="#FFFFFF" width="40" height="40"/>
<rect id="id94" x="240" y="400" fill="#FFFFFF" width="40" height="40"/>
<rect id="id93" x="280" y="400" fill="#FFFFFF" width="40" height="40"/>
<rect id="id92" x="319" y="400" fill="#FFFFFF" width="40" height="40"/>
<rect id="id91" x="359" y="400" fill="#FFFFFF" width="40" height="40"/>
<rect id="id90" x="399" y="400" fill="#FFFFFF" width="40" height="40"/>
<rect id="id89" x="439" y="400" fill="#FFFFFF" width="40" height="40"/>
<rect id="id88" x="479" y="400" fill="#FFFFFF" width="40" height="40"/>
<rect id="id87" x="519" y="400" fill="#FFFFFF" width="40" height="40"/>
<rect id="id86" x="559" y="400" fill="#FFFFFF" width="40" height="40"/>
<rect id="id85" x="599" y="400" fill="#FFFFFF" width="40" height="40"/>
<rect id="id84" x="639" y="400" fill="#FFFFFF" width="40" height="40"/>
<rect id="id83" x="679" y="400" fill="#FFFFFF" width="40" height="40"/>
<rect id="id82" x="719" y="400" fill="#FFFFFF" width="40" height="40"/>
<rect id="id81" x="759" y="400" fill="#FFFFFF" width="40" height="40"/>
<rect id="id80" y="440" fill="#FFFFFF" width="40" height="40"/>
<rect id="id79" x="40" y="440" fill="#FFFFFF" width="40" height="40"/>
<rect id="id78" x="80" y="440" fill="#FFFFFF" width="40" height="40"/>
<rect id="id77" x="120" y="440" fill="#FFFFFF" width="40" height="40"/>
<rect id="id76" x="160" y="440" fill="#FFFFFF" width="40" height="40"/>
<rect id="id75" x="200" y="440" fill="#FFFFFF" width="40" height="40"/>
<rect id="id74" x="240" y="440" fill="#FFFFFF" width="40" height="40"/>
<rect id="id73" x="280" y="440" fill="#FFFFFF" width="40" height="40"/>
<rect id="id72" x="319" y="440" fill="#FFFFFF" width="40" height="40"/>
<rect id="id71" x="359" y="440" fill="#FFFFFF" width="40" height="40"/>
<rect id="id70" x="399" y="440" fill="#FFFFFF" width="40" height="40"/>
<rect id="id69" x="439" y="440" fill="#FFFFFF" width="40" height="40"/>
<rect id="id68" x="479" y="440" fill="#FFFFFF" width="40" height="40"/>
<rect id="id67" x="519" y="440" fill="#FFFFFF" width="40" height="40"/>
<rect id="id66" x="559" y="440" fill="#FFFFFF" width="40" height="40"/>
<rect id="id65" x="599" y="440" fill="#FFFFFF" width="40" height="40"/>
<rect id="id64" x="639" y="440" fill="#FFFFFF" width="40" height="40"/>
<rect id="id63" x="679" y="440" fill="#FFFFFF" width="40" height="40"/>
<rect id="id62" x="719" y="440" fill="#FFFFFF" width="40" height="40"/>
<rect id="id61" x="759" y="440" fill="#FFFFFF" width="40" height="40"/>
<rect id="id60" y="480" fill="#FFFFFF" width="40" height="40"/>
<rect id="id59" x="40" y="480" fill="#FFFFFF" width="40" height="40"/>
<rect id="id58" x="80" y="480" fill="#FFFFFF" width="40" height="40"/>
<rect id="id57" x="120" y="480" fill="#FFFFFF" width="40" height="40"/>
<rect id="id56" x="160" y="480" fill="#FFFFFF" width="40" height="40"/>
<rect id="id55" x="200" y="480" fill="#FFFFFF" width="40" height="40"/>
<rect id="id54" x="240" y="480" fill="#FFFFFF" width="40" height="40"/>
<rect id="id53" x="280" y="480" fill="#FFFFFF" width="40" height="40"/>
<rect id="id52" x="319" y="480" fill="#FFFFFF" width="40" height="40"/>
<rect id="id51" x="359" y="480" fill="#FFFFFF" width="40" height="40"/>
<rect id="id50" x="399" y="480" fill="#FFFFFF" width="40" height="40"/>
<rect id="id49" x="439" y="480" fill="#FFFFFF" width="40" height="40"/>
<rect id="id48" x="479" y="480" fill="#FFFFFF" width="40" height="40"/>
<rect id="id47" x="519" y="480" fill="#FFFFFF" width="40" height="40"/>
<rect id="id46" x="559" y="480" fill="#FFFFFF" width="40" height="40"/>
<rect id="id45" x="599" y="480" fill="#FFFFFF" width="40" height="40"/>
<rect id="id44" x="639" y="480" fill="#FFFFFF" width="40" height="40"/>
<rect id="id43" x="679" y="480" fill="#FFFFFF" width="40" height="40"/>
<rect id="id42" x="719" y="480" fill="#FFFFFF" width="40" height="40"/>
<rect id="id41" x="759" y="480" fill="#FFFFFF" width="40" height="40"/>
<rect id="id40" y="520" fill="#FFFFFF" width="40" height="40"/>
<rect id="id39" x="40" y="520" fill="#FFFFFF" width="40" height="40"/>
<rect id="id38" x="80" y="520" fill="#FFFFFF" width="40" height="40"/>
<rect id="id37" x="120" y="520" fill="#FFFFFF" width="40" height="40"/>
<rect id="id36" x="160" y="520" fill="#FFFFFF" width="40" height="40"/>
<rect id="id35" x="200" y="520" fill="#FFFFFF" width="40" height="40"/>
<rect id="id34" x="240" y="520" fill="#FFFFFF" width="40" height="40"/>
<rect id="id33" x="280" y="520" fill="#FFFFFF" width="40" height="40"/>
<rect id="id32" x="319" y="520" fill="#FFFFFF" width="40" height="40"/>
<rect id="id31" x="359" y="520" fill="#FFFFFF" width="40" height="40"/>
<rect id="id30" x="399" y="520" fill="#FFFFFF" width="40" height="40"/>
<rect id="id29" x="439" y="520" fill="#FFFFFF" width="40" height="40"/>
<rect id="id28" x="479" y="520" fill="#FFFFFF" width="40" height="40"/>
<rect id="id27" x="519" y="520" fill="#FFFFFF" width="40" height="40"/>
<rect id="id26" x="559" y="520" fill="#FFFFFF" width="40" height="40"/>
<rect id="id25" x="599" y="520" fill="#FFFFFF" width="40" height="40"/>
<rect id="id24" x="639" y="520" fill="#FFFFFF" width="40" height="40"/>
<rect id="id23" x="679" y="520" fill="#FFFFFF" width="40" height="40"/>
<rect id="id22" x="719" y="520" fill="#FFFFFF" width="40" height="40"/>
<rect id="id21" x="759" y="520" fill="#FFFFFF" width="40" height="40"/>
<rect id="id20" y="560" fill="#FFFFFF" width="40" height="40"/>
<rect id="id19" x="40" y="560" fill="#FFFFFF" width="40" height="40"/>
<rect id="id18" x="80" y="560" fill="#FFFFFF" width="40" height="40"/>
<rect id="id17" x="120" y="560" fill="#FFFFFF" width="40" height="40"/>
<rect id="id16" x="160" y="560" fill="#FFFFFF" width="40" height="40"/>
<rect id="id15" x="200" y="560" fill="#FFFFFF" width="40" height="40"/>
<rect id="id14" x="240" y="560" fill="#FFFFFF" width="40" height="40"/>
<rect id="id13" x="280" y="560" fill="#FFFFFF" width="40" height="40"/>
<rect id="id12" x="319" y="560" fill="#FFFFFF" width="40" height="40"/>
<rect id="id11" x="359" y="560" fill="#FFFFFF" width="40" height="40"/>
<rect id="id10" x="399" y="560" fill="#FFFFFF" width="40" height="40"/>
<rect id="id9" x="439" y="560" fill="#FFFFFF" width="40" height="40"/>
<rect id="id8" x="479" y="560" fill="#FFFFFF" width="40" height="40"/>
<rect id="id7" x="519" y="560" fill="#FFFFFF" width="40" height="40"/>
<rect id="id6" x="559" y="560" fill="#FFFFFF" width="40" height="40"/>
<rect id="id5" x="599" y="560" fill="#FFFFFF" width="40" height="40"/>
<rect id="id4" x="639" y="560" fill="#FFFFFF" width="40" height="40"/>
<rect id="id3" x="679" y="560" fill="#FFFFFF" width="40" height="40"/>
<rect id="id2" x="719" y="560" fill="#FFFFFF" width="40" height="40"/>
<rect id="id1" x="759" y="560" fill="#FFFFFF" width="40" height="40"/>
</svg>
